<svg width="394" height="150" viewBox="0 0 394 150" fill="none" xmlns="http://www.w3.org/2000/svg">
<path d="M129.5 76.3022C129.5 72.2397 129.135 68.3335 128.458 64.5835H74.5V86.771H105.333C103.979 93.9064 99.9167 99.9481 93.8229 104.011V118.438H112.417C123.25 108.438 129.5 93.7502 129.5 76.3022Z" fill="#4285F4"/>
<path d="M74.5001 132.292C89.9688 132.292 102.938 127.188 112.417 118.438L93.823 104.01C88.7188 107.448 82.2084 109.531 74.5001 109.531C59.6042 109.531 46.948 99.4792 42.4167 85.9375H23.3542V100.729C32.7813 119.427 52.1042 132.292 74.5001 132.292Z" fill="#34A853"/>
<path d="M42.4166 85.8853C41.2708 82.4478 40.5937 78.8019 40.5937 74.9998C40.5937 71.1978 41.2708 67.5519 42.4166 64.1144V49.3228H23.3541C19.4478 57.0311 17.2083 65.729 17.2083 74.9998C17.2083 84.2707 19.4478 92.9686 23.3541 100.677L38.1978 89.1144L42.4166 85.8853Z" fill="#FBBC05"/>
<path d="M74.5001 40.521C82.9376 40.521 90.4376 43.4377 96.4272 49.0627L112.833 32.6564C102.886 23.3856 89.9688 17.7085 74.5001 17.7085C52.1042 17.7085 32.7813 30.5731 23.3542 49.3231L42.4167 64.1147C46.948 50.5731 59.6042 40.521 74.5001 40.521Z" fill="#EA4335"/>
<path d="M170.87 39.276C169.644 39.276 168.509 39.0537 167.466 38.609C166.424 38.1643 165.511 37.5433 164.729 36.746C163.947 35.9487 163.334 35.0133 162.889 33.94C162.46 32.8667 162.245 31.6937 162.245 30.421C162.245 29.1483 162.452 27.9753 162.866 26.902C163.296 25.8133 163.894 24.878 164.66 24.096C165.442 23.2987 166.355 22.6853 167.397 22.256C168.44 21.8113 169.575 21.589 170.801 21.589C172.028 21.589 173.124 21.796 174.09 22.21C175.072 22.624 175.9 23.176 176.574 23.866C177.249 24.5407 177.732 25.2843 178.023 26.097L175.24 27.431C174.918 26.5417 174.374 25.821 173.607 25.269C172.841 24.717 171.905 24.441 170.801 24.441C169.728 24.441 168.777 24.694 167.949 25.2C167.137 25.706 166.5 26.4037 166.04 27.293C165.596 28.1823 165.373 29.225 165.373 30.421C165.373 31.617 165.603 32.6673 166.063 33.572C166.539 34.4613 167.19 35.159 168.018 35.665C168.846 36.171 169.797 36.424 170.87 36.424C171.744 36.424 172.549 36.2553 173.285 35.918C174.021 35.5653 174.612 35.0747 175.056 34.446C175.501 33.802 175.723 33.043 175.723 32.169V30.858L177.149 32.1H170.801V29.455H178.851V31.18C178.851 32.4987 178.629 33.664 178.184 34.676C177.74 35.688 177.134 36.539 176.367 37.229C175.616 37.9037 174.765 38.4173 173.814 38.77C172.864 39.1073 171.882 39.276 170.87 39.276ZM187.191 39.276C185.965 39.276 184.845 38.9923 183.833 38.425C182.837 37.8577 182.039 37.0833 181.441 36.102C180.859 35.1207 180.567 34.0013 180.567 32.744C180.567 31.4867 180.859 30.3673 181.441 29.386C182.039 28.4047 182.837 27.6303 183.833 27.063C184.83 26.4957 185.949 26.212 187.191 26.212C188.418 26.212 189.53 26.4957 190.526 27.063C191.523 27.6303 192.313 28.4047 192.895 29.386C193.493 30.352 193.792 31.4713 193.792 32.744C193.792 34.0013 193.493 35.1207 192.895 36.102C192.297 37.0833 191.5 37.8577 190.503 38.425C189.507 38.9923 188.403 39.276 187.191 39.276ZM187.191 36.516C187.866 36.516 188.456 36.355 188.962 36.033C189.484 35.711 189.89 35.2663 190.181 34.699C190.488 34.1163 190.641 33.4647 190.641 32.744C190.641 32.008 190.488 31.364 190.181 30.812C189.89 30.2447 189.484 29.8 188.962 29.478C188.456 29.1407 187.866 28.972 187.191 28.972C186.501 28.972 185.896 29.1407 185.374 29.478C184.853 29.8 184.439 30.2447 184.132 30.812C183.841 31.364 183.695 32.008 183.695 32.744C183.695 33.4647 183.841 34.1163 184.132 34.699C184.439 35.2663 184.853 35.711 185.374 36.033C185.896 36.355 186.501 36.516 187.191 36.516ZM202.195 39.276C200.969 39.276 199.849 38.9923 198.837 38.425C197.841 37.8577 197.043 37.0833 196.445 36.102C195.863 35.1207 195.571 34.0013 195.571 32.744C195.571 31.4867 195.863 30.3673 196.445 29.386C197.043 28.4047 197.841 27.6303 198.837 27.063C199.834 26.4957 200.953 26.212 202.195 26.212C203.422 26.212 204.534 26.4957 205.53 27.063C206.527 27.6303 207.317 28.4047 207.899 29.386C208.497 30.352 208.796 31.4713 208.796 32.744C208.796 34.0013 208.497 35.1207 207.899 36.102C207.301 37.0833 206.504 37.8577 205.507 38.425C204.511 38.9923 203.407 39.276 202.195 39.276ZM202.195 36.516C202.87 36.516 203.46 36.355 203.966 36.033C204.488 35.711 204.894 35.2663 205.185 34.699C205.492 34.1163 205.645 33.4647 205.645 32.744C205.645 32.008 205.492 31.364 205.185 30.812C204.894 30.2447 204.488 29.8 203.966 29.478C203.46 29.1407 202.87 28.972 202.195 28.972C201.505 28.972 200.9 29.1407 200.378 29.478C199.857 29.8 199.443 30.2447 199.136 30.812C198.845 31.364 198.699 32.008 198.699 32.744C198.699 33.4647 198.845 34.1163 199.136 34.699C199.443 35.2663 199.857 35.711 200.378 36.033C200.9 36.355 201.505 36.516 202.195 36.516ZM217.153 44.06C216.218 44.06 215.352 43.9067 214.554 43.6C213.757 43.2933 213.067 42.864 212.484 42.312C211.917 41.7753 211.503 41.139 211.242 40.403L214.048 39.345C214.232 39.9277 214.593 40.3953 215.129 40.748C215.681 41.116 216.356 41.3 217.153 41.3C217.767 41.3 218.303 41.185 218.763 40.955C219.239 40.725 219.607 40.3877 219.867 39.943C220.128 39.5137 220.258 38.9923 220.258 38.379V35.527L220.833 36.217C220.404 36.9683 219.829 37.5357 219.108 37.919C218.388 38.3023 217.567 38.494 216.647 38.494C215.482 38.494 214.439 38.2257 213.519 37.689C212.599 37.1523 211.879 36.4163 211.357 35.481C210.836 34.5457 210.575 33.4953 210.575 32.33C210.575 31.1493 210.836 30.099 211.357 29.179C211.879 28.259 212.592 27.5383 213.496 27.017C214.401 26.4803 215.428 26.212 216.578 26.212C217.514 26.212 218.334 26.4113 219.039 26.81C219.76 27.1933 220.358 27.753 220.833 28.489L220.419 29.248V26.488H223.271V38.379C223.271 39.4677 223.003 40.4413 222.466 41.3C221.945 42.1587 221.224 42.8333 220.304 43.324C219.4 43.8147 218.349 44.06 217.153 44.06ZM217.015 35.711C217.659 35.711 218.219 35.573 218.694 35.297C219.185 35.0057 219.568 34.607 219.844 34.101C220.12 33.595 220.258 33.0123 220.258 32.353C220.258 31.709 220.113 31.134 219.821 30.628C219.545 30.1067 219.162 29.7003 218.671 29.409C218.196 29.1177 217.644 28.972 217.015 28.972C216.387 28.972 215.819 29.1177 215.313 29.409C214.807 29.7003 214.409 30.1067 214.117 30.628C213.841 31.134 213.703 31.709 213.703 32.353C213.703 32.997 213.841 33.572 214.117 34.078C214.409 34.584 214.8 34.9827 215.29 35.274C215.796 35.5653 216.371 35.711 217.015 35.711ZM226.085 39V21.589H229.098V39H226.085ZM237.814 39.276C236.526 39.276 235.399 38.9847 234.433 38.402C233.467 37.8193 232.716 37.0297 232.179 36.033C231.642 35.0363 231.374 33.9323 231.374 32.721C231.374 31.4637 231.642 30.352 232.179 29.386C232.731 28.4047 233.475 27.6303 234.41 27.063C235.361 26.4957 236.419 26.212 237.584 26.212C238.565 26.212 239.424 26.373 240.16 26.695C240.911 27.017 241.548 27.4617 242.069 28.029C242.59 28.5963 242.989 29.248 243.265 29.984C243.541 30.7047 243.679 31.4867 243.679 32.33C243.679 32.5447 243.664 32.767 243.633 32.997C243.618 33.227 243.579 33.4263 243.518 33.595H233.858V31.295H241.816L240.39 32.376C240.528 31.6707 240.49 31.042 240.275 30.49C240.076 29.938 239.738 29.501 239.263 29.179C238.803 28.857 238.243 28.696 237.584 28.696C236.955 28.696 236.396 28.857 235.905 29.179C235.414 29.4857 235.039 29.9457 234.778 30.559C234.533 31.157 234.441 31.8853 234.502 32.744C234.441 33.5107 234.54 34.193 234.801 34.791C235.077 35.3737 235.476 35.826 235.997 36.148C236.534 36.47 237.147 36.631 237.837 36.631C238.527 36.631 239.11 36.4853 239.585 36.194C240.076 35.9027 240.459 35.5117 240.735 35.021L243.173 36.217C242.928 36.815 242.544 37.344 242.023 37.804C241.502 38.264 240.881 38.6243 240.16 38.885C239.455 39.1457 238.673 39.276 237.814 39.276ZM250.304 39V21.865H256.675C257.84 21.865 258.868 22.0797 259.757 22.509C260.662 22.923 261.367 23.5363 261.873 24.349C262.379 25.1463 262.632 26.12 262.632 27.27C262.632 28.4507 262.348 29.455 261.781 30.283C261.229 31.111 260.478 31.7243 259.527 32.123L263.46 39H259.918L255.709 31.479L257.733 32.675H253.432V39H250.304ZM253.432 29.915H256.721C257.288 29.915 257.779 29.8077 258.193 29.593C258.607 29.363 258.929 29.0487 259.159 28.65C259.389 28.2513 259.504 27.7913 259.504 27.27C259.504 26.7333 259.389 26.2733 259.159 25.89C258.929 25.4913 258.607 25.1847 258.193 24.97C257.779 24.74 257.288 24.625 256.721 24.625H253.432V29.915ZM269.052 39.276C268.178 39.276 267.419 39.1303 266.775 38.839C266.131 38.5477 265.633 38.1337 265.28 37.597C264.927 37.045 264.751 36.4087 264.751 35.688C264.751 34.998 264.904 34.3847 265.211 33.848C265.518 33.296 265.993 32.836 266.637 32.468C267.281 32.1 268.094 31.8393 269.075 31.686L273.169 31.019V33.319L269.65 33.917C269.052 34.0243 268.607 34.216 268.316 34.492C268.025 34.768 267.879 35.1283 267.879 35.573C267.879 36.0023 268.04 36.3473 268.362 36.608C268.699 36.8533 269.113 36.976 269.604 36.976C270.233 36.976 270.785 36.8457 271.26 36.585C271.751 36.309 272.126 35.9333 272.387 35.458C272.663 34.9827 272.801 34.4613 272.801 33.894V30.674C272.801 30.1373 272.586 29.6927 272.157 29.34C271.743 28.972 271.191 28.788 270.501 28.788C269.857 28.788 269.282 28.9643 268.776 29.317C268.285 29.6543 267.925 30.1067 267.695 30.674L265.234 29.478C265.479 28.8187 265.863 28.2513 266.384 27.776C266.921 27.2853 267.549 26.902 268.27 26.626C268.991 26.35 269.773 26.212 270.616 26.212C271.643 26.212 272.548 26.4037 273.33 26.787C274.112 27.155 274.718 27.6763 275.147 28.351C275.592 29.0103 275.814 29.7847 275.814 30.674V39H272.962V36.861L273.606 36.815C273.284 37.3517 272.901 37.804 272.456 38.172C272.011 38.5247 271.505 38.8007 270.938 39C270.371 39.184 269.742 39.276 269.052 39.276ZM284.078 39.138C282.668 39.138 281.571 38.7547 280.789 37.988C280.023 37.206 279.639 36.1097 279.639 34.699V29.179H277.477V26.488H277.707C278.321 26.488 278.796 26.327 279.133 26.005C279.471 25.683 279.639 25.2153 279.639 24.602V23.636H282.652V26.488H285.527V29.179H282.652V34.538C282.652 34.952 282.721 35.3047 282.859 35.596C283.013 35.8873 283.243 36.1097 283.549 36.263C283.871 36.4163 284.278 36.493 284.768 36.493C284.876 36.493 284.998 36.4853 285.136 36.47C285.29 36.4547 285.435 36.4393 285.573 36.424V39C285.359 39.0307 285.113 39.0613 284.837 39.092C284.561 39.1227 284.308 39.138 284.078 39.138ZM287.875 39V26.488H290.888V39H287.875ZM287.875 25.085V21.865H290.888V25.085H287.875ZM293.67 39V26.488H296.499V28.949L296.269 28.512C296.56 27.7607 297.036 27.1933 297.695 26.81C298.37 26.4113 299.152 26.212 300.041 26.212C300.961 26.212 301.774 26.4113 302.479 26.81C303.2 27.2087 303.759 27.7683 304.158 28.489C304.557 29.1943 304.756 30.0147 304.756 30.95V39H301.743V31.663C301.743 31.111 301.636 30.6357 301.421 30.237C301.206 29.8383 300.907 29.5317 300.524 29.317C300.156 29.087 299.719 28.972 299.213 28.972C298.722 28.972 298.285 29.087 297.902 29.317C297.519 29.5317 297.22 29.8383 297.005 30.237C296.79 30.6357 296.683 31.111 296.683 31.663V39H293.67ZM313.376 44.06C312.441 44.06 311.574 43.9067 310.777 43.6C309.98 43.2933 309.29 42.864 308.707 42.312C308.14 41.7753 307.726 41.139 307.465 40.403L310.271 39.345C310.455 39.9277 310.815 40.3953 311.352 40.748C311.904 41.116 312.579 41.3 313.376 41.3C313.989 41.3 314.526 41.185 314.986 40.955C315.461 40.725 315.829 40.3877 316.09 39.943C316.351 39.5137 316.481 38.9923 316.481 38.379V35.527L317.056 36.217C316.627 36.9683 316.052 37.5357 315.331 37.919C314.61 38.3023 313.79 38.494 312.87 38.494C311.705 38.494 310.662 38.2257 309.742 37.689C308.822 37.1523 308.101 36.4163 307.58 35.481C307.059 34.5457 306.798 33.4953 306.798 32.33C306.798 31.1493 307.059 30.099 307.58 29.179C308.101 28.259 308.814 27.5383 309.719 27.017C310.624 26.4803 311.651 26.212 312.801 26.212C313.736 26.212 314.557 26.4113 315.262 26.81C315.983 27.1933 316.581 27.753 317.056 28.489L316.642 29.248V26.488H319.494V38.379C319.494 39.4677 319.226 40.4413 318.689 41.3C318.168 42.1587 317.447 42.8333 316.527 43.324C315.622 43.8147 314.572 44.06 313.376 44.06ZM313.238 35.711C313.882 35.711 314.442 35.573 314.917 35.297C315.408 35.0057 315.791 34.607 316.067 34.101C316.343 33.595 316.481 33.0123 316.481 32.353C316.481 31.709 316.335 31.134 316.044 30.628C315.768 30.1067 315.385 29.7003 314.894 29.409C314.419 29.1177 313.867 28.972 313.238 28.972C312.609 28.972 312.042 29.1177 311.536 29.409C311.03 29.7003 310.631 30.1067 310.34 30.628C310.064 31.134 309.926 31.709 309.926 32.353C309.926 32.997 310.064 33.572 310.34 34.078C310.631 34.584 311.022 34.9827 311.513 35.274C312.019 35.5653 312.594 35.711 313.238 35.711Z" fill="#6A6A6A"/>
<g clip-path="url(#clip0_112_256)">
<path d="M233.268 63.0023C234.037 61.6684 235.963 61.6684 236.732 63.0023L239.816 68.346C240.128 68.8873 240.675 69.2514 241.295 69.3304L247.602 70.1344C249.329 70.3546 249.97 72.5239 248.639 73.6469L244.493 77.1458C243.938 77.6141 243.68 78.3463 243.82 79.0589L244.836 84.2448C245.149 85.8376 243.534 87.1192 242.053 86.4535L235.82 83.65C235.299 83.4153 234.701 83.4153 234.18 83.65L227.947 86.4535C226.466 87.1192 224.851 85.8376 225.164 84.2448L226.18 79.0589C226.32 78.3463 226.062 77.6141 225.507 77.1458L221.361 73.6469C220.03 72.5239 220.671 70.3546 222.398 70.1344L228.705 69.3304C229.325 69.2514 229.872 68.8873 230.184 68.346L233.268 63.0023Z" fill="#FEA500"/>
<path d="M263.78 62.9009C264.554 61.5944 266.446 61.5944 267.22 62.9009L270.458 68.3612C270.774 68.8934 271.318 69.2496 271.932 69.3258L278.47 70.1367C280.214 70.353 280.851 72.552 279.493 73.6672L275.261 77.1419C274.69 77.6112 274.424 78.3576 274.57 79.0825L275.615 84.2715C275.935 85.8582 274.335 87.1476 272.853 86.4987L266.302 83.6319C265.791 83.4082 265.209 83.4082 264.698 83.6319L258.147 86.4987C256.665 87.1476 255.065 85.8582 255.385 84.2715L256.43 79.0825C256.576 78.3576 256.31 77.6112 255.739 77.1419L251.507 73.6672C250.149 72.552 250.786 70.353 252.53 70.1367L259.068 69.3258C259.682 69.2496 260.226 68.8934 260.542 68.3612L263.78 62.9009Z" fill="#FEA500"/>
<path d="M293.756 63.1095C294.52 61.7474 296.48 61.7474 297.244 63.1095L300.173 68.3308C300.482 68.881 301.032 69.2533 301.658 69.3354L307.734 70.1321C309.444 70.3563 310.087 72.4949 308.785 73.6255L304.724 77.1501C304.186 77.6171 303.937 78.3351 304.07 79.0349L305.058 84.2157C305.362 85.815 303.731 87.0888 302.253 86.4053L296.34 83.6695C295.807 83.423 295.193 83.423 294.66 83.6695L288.747 86.4053C287.269 87.0888 285.638 85.8149 285.942 84.2157L286.93 79.0349C287.063 78.3351 286.814 77.6171 286.276 77.1501L282.215 73.6255C280.913 72.4949 281.556 70.3563 283.266 70.1321L289.342 69.3354C289.968 69.2533 290.518 68.881 290.827 68.3308L293.756 63.1095Z" fill="#FEA500"/>
<path d="M323.78 62.9009C324.554 61.5944 326.446 61.5944 327.22 62.9009L330.458 68.3612C330.774 68.8934 331.318 69.2496 331.932 69.3258L338.47 70.1367C340.214 70.353 340.851 72.552 339.493 73.6672L335.261 77.1419C334.69 77.6112 334.424 78.3576 334.57 79.0825L335.615 84.2715C335.935 85.8582 334.335 87.1476 332.853 86.4987L326.302 83.6319C325.791 83.4082 325.209 83.4082 324.698 83.6319L318.147 86.4987C316.665 87.1476 315.065 85.8582 315.385 84.2715L316.43 79.0825C316.576 78.3576 316.31 77.6112 315.739 77.1419L311.507 73.6672C310.149 72.552 310.786 70.353 312.53 70.1367L319.068 69.3258C319.682 69.2496 320.226 68.8934 320.542 68.3612L323.78 62.9009Z" fill="#FEA500"/>
<path d="M353.756 63.1095C354.52 61.7474 356.48 61.7474 357.244 63.1095L360.173 68.3308C360.482 68.881 361.032 69.2533 361.658 69.3354L367.734 70.1321C369.444 70.3563 370.087 72.4949 368.785 73.6255L364.724 77.1501C364.186 77.6171 363.937 78.3351 364.07 79.0349L365.058 84.2157C365.362 85.815 363.731 87.0888 362.253 86.4053L356.34 83.6695C355.807 83.423 355.193 83.423 354.66 83.6695L348.747 86.4053C347.269 87.0888 345.638 85.8149 345.942 84.2157L346.93 79.0349C347.063 78.3351 346.814 77.6171 346.276 77.1501L342.215 73.6255C340.913 72.4949 341.556 70.3563 343.266 70.1321L349.342 69.3354C349.968 69.2533 350.518 68.881 350.827 68.3308L353.756 63.1095Z" fill="#FEA500"/>
<path d="M170.01 87.86C168.83 87.86 167.69 87.64 166.59 87.2C165.49 86.74 164.55 86.1 163.77 85.28C162.99 84.44 162.48 83.44 162.24 82.28L166.35 80.9C166.65 81.86 167.13 82.56 167.79 83C168.45 83.44 169.19 83.66 170.01 83.66C170.71 83.66 171.32 83.52 171.84 83.24C172.36 82.94 172.76 82.53 173.04 82.01C173.34 81.47 173.49 80.85 173.49 80.15C173.49 79.45 173.34 78.84 173.04 78.32C172.76 77.8 172.36 77.4 171.84 77.12C171.32 76.82 170.71 76.67 170.01 76.67C169.29 76.67 168.65 76.83 168.09 77.15C167.53 77.45 167.12 77.92 166.86 78.56L163.05 77.66L164.85 65.15H177.33V69.05H166.74L168.48 66.95L167.25 76.25L165.99 75.14C166.49 74.32 167.12 73.72 167.88 73.34C168.66 72.96 169.66 72.77 170.88 72.77C172.38 72.77 173.67 73.09 174.75 73.73C175.83 74.35 176.66 75.21 177.24 76.31C177.84 77.41 178.14 78.69 178.14 80.15C178.14 81.61 177.78 82.93 177.06 84.11C176.36 85.27 175.4 86.19 174.18 86.87C172.96 87.53 171.57 87.86 170.01 87.86ZM183.458 87.5V83H187.958V87.5H183.458ZM202.334 87.86C200.554 87.86 198.984 87.38 197.624 86.42C196.284 85.46 195.234 84.11 194.474 82.37C193.714 80.63 193.334 78.61 193.334 76.31C193.334 73.99 193.704 71.97 194.444 70.25C195.204 68.53 196.254 67.19 197.594 66.23C198.954 65.27 200.524 64.79 202.304 64.79C204.124 64.79 205.704 65.27 207.044 66.23C208.404 67.19 209.454 68.54 210.194 70.28C210.954 72 211.334 74.01 211.334 76.31C211.334 78.61 210.954 80.63 210.194 82.37C209.454 84.09 208.404 85.44 207.044 86.42C205.704 87.38 204.134 87.86 202.334 87.86ZM202.364 83.66C203.284 83.66 204.064 83.37 204.704 82.79C205.344 82.21 205.834 81.37 206.174 80.27C206.514 79.17 206.684 77.85 206.684 76.31C206.684 74.77 206.514 73.46 206.174 72.38C205.834 71.28 205.334 70.44 204.674 69.86C204.034 69.28 203.244 68.99 202.304 68.99C201.384 68.99 200.604 69.28 199.964 69.86C199.324 70.44 198.834 71.28 198.494 72.38C198.154 73.46 197.984 74.77 197.984 76.31C197.984 77.83 198.154 79.14 198.494 80.24C198.834 81.34 199.324 82.19 199.964 82.79C200.624 83.37 201.424 83.66 202.364 83.66Z" fill="#FEA500"/>
</g>
<path d="M167.819 126.228C166.92 126.228 166.103 126.057 165.368 125.715C164.633 125.373 164.013 124.917 163.506 124.347C162.999 123.764 162.638 123.125 162.423 122.428L163.791 121.915C164.12 122.878 164.633 123.612 165.33 124.119C166.027 124.613 166.856 124.86 167.819 124.86C168.427 124.86 168.959 124.765 169.415 124.575C169.884 124.372 170.245 124.094 170.498 123.739C170.751 123.384 170.878 122.973 170.878 122.504C170.878 121.807 170.688 121.269 170.308 120.889C169.928 120.509 169.383 120.218 168.674 120.015L166.128 119.255C165.127 118.964 164.355 118.476 163.81 117.792C163.278 117.108 163.012 116.329 163.012 115.455C163.012 114.708 163.196 114.049 163.563 113.479C163.93 112.896 164.431 112.44 165.064 112.111C165.71 111.782 166.438 111.617 167.249 111.617C168.098 111.617 168.858 111.775 169.529 112.092C170.213 112.396 170.789 112.801 171.258 113.308C171.727 113.815 172.062 114.378 172.265 114.999L170.935 115.531C170.631 114.695 170.156 114.062 169.51 113.631C168.877 113.2 168.129 112.985 167.268 112.985C166.723 112.985 166.242 113.08 165.824 113.27C165.419 113.46 165.102 113.732 164.874 114.087C164.646 114.442 164.532 114.86 164.532 115.341C164.532 115.924 164.716 116.449 165.083 116.918C165.45 117.374 166.014 117.716 166.774 117.944L169.016 118.609C170.131 118.938 170.973 119.413 171.543 120.034C172.113 120.655 172.398 121.434 172.398 122.371C172.398 123.131 172.202 123.802 171.809 124.385C171.429 124.955 170.891 125.405 170.194 125.734C169.51 126.063 168.718 126.228 167.819 126.228ZM179.76 126.228C178.81 126.228 177.949 126 177.176 125.544C176.416 125.075 175.814 124.436 175.371 123.625C174.928 122.814 174.706 121.896 174.706 120.87C174.706 119.844 174.921 118.938 175.352 118.153C175.783 117.355 176.365 116.728 177.1 116.272C177.847 115.816 178.683 115.588 179.608 115.588C180.343 115.588 180.995 115.727 181.565 116.006C182.148 116.272 182.642 116.639 183.047 117.108C183.452 117.564 183.763 118.083 183.978 118.666C184.193 119.236 184.301 119.825 184.301 120.433C184.301 120.56 184.295 120.705 184.282 120.87C184.269 121.022 184.25 121.18 184.225 121.345H175.618V120.015H183.408L182.724 120.585C182.838 119.888 182.756 119.268 182.477 118.723C182.211 118.166 181.825 117.729 181.318 117.412C180.811 117.083 180.241 116.918 179.608 116.918C178.975 116.918 178.386 117.083 177.841 117.412C177.309 117.741 176.891 118.204 176.587 118.799C176.283 119.382 176.163 120.078 176.226 120.889C176.163 121.7 176.289 122.409 176.606 123.017C176.935 123.612 177.379 124.075 177.936 124.404C178.506 124.733 179.114 124.898 179.76 124.898C180.507 124.898 181.134 124.721 181.641 124.366C182.148 124.011 182.559 123.568 182.876 123.036L184.092 123.682C183.889 124.138 183.579 124.562 183.161 124.955C182.743 125.335 182.243 125.645 181.66 125.886C181.09 126.114 180.457 126.228 179.76 126.228ZM191.45 126.228C190.5 126.228 189.638 126 188.866 125.544C188.106 125.075 187.504 124.436 187.061 123.625C186.617 122.814 186.396 121.896 186.396 120.87C186.396 119.844 186.611 118.938 187.042 118.153C187.472 117.355 188.055 116.728 188.79 116.272C189.537 115.816 190.373 115.588 191.298 115.588C192.032 115.588 192.685 115.727 193.255 116.006C193.837 116.272 194.331 116.639 194.737 117.108C195.142 117.564 195.452 118.083 195.668 118.666C195.883 119.236 195.991 119.825 195.991 120.433C195.991 120.56 195.984 120.705 195.972 120.87C195.959 121.022 195.94 121.18 195.915 121.345H187.308V120.015H195.098L194.414 120.585C194.528 119.888 194.445 119.268 194.167 118.723C193.901 118.166 193.514 117.729 193.008 117.412C192.501 117.083 191.931 116.918 191.298 116.918C190.664 116.918 190.075 117.083 189.531 117.412C188.999 117.741 188.581 118.204 188.277 118.799C187.973 119.382 187.852 120.078 187.916 120.889C187.852 121.7 187.979 122.409 188.296 123.017C188.625 123.612 189.068 124.075 189.626 124.404C190.196 124.733 190.804 124.898 191.45 124.898C192.197 124.898 192.824 124.721 193.331 124.366C193.837 124.011 194.249 123.568 194.566 123.036L195.782 123.682C195.579 124.138 195.269 124.562 194.851 124.955C194.433 125.335 193.932 125.645 193.35 125.886C192.78 126.114 192.146 126.228 191.45 126.228ZM204.677 126.228C204.031 126.228 203.454 126.108 202.948 125.867C202.441 125.614 202.042 125.272 201.751 124.841C201.459 124.41 201.314 123.916 201.314 123.359C201.314 122.827 201.428 122.346 201.656 121.915C201.884 121.472 202.238 121.098 202.72 120.794C203.201 120.49 203.815 120.275 204.563 120.148L208.553 119.483V120.775L204.905 121.383C204.17 121.51 203.638 121.744 203.309 122.086C202.992 122.428 202.834 122.833 202.834 123.302C202.834 123.758 203.011 124.144 203.366 124.461C203.733 124.778 204.202 124.936 204.772 124.936C205.468 124.936 206.076 124.79 206.596 124.499C207.115 124.195 207.52 123.79 207.812 123.283C208.103 122.776 208.249 122.213 208.249 121.592V119.008C208.249 118.4 208.027 117.906 207.584 117.526C207.14 117.146 206.564 116.956 205.855 116.956C205.234 116.956 204.689 117.114 204.221 117.431C203.752 117.735 203.404 118.134 203.176 118.628L201.884 117.925C202.074 117.494 202.371 117.102 202.777 116.747C203.195 116.392 203.67 116.114 204.202 115.911C204.734 115.696 205.285 115.588 205.855 115.588C206.602 115.588 207.261 115.734 207.831 116.025C208.413 116.316 208.863 116.722 209.18 117.241C209.509 117.748 209.674 118.337 209.674 119.008V126H208.249V123.967L208.458 124.176C208.28 124.556 208.002 124.904 207.622 125.221C207.254 125.525 206.817 125.772 206.311 125.962C205.817 126.139 205.272 126.228 204.677 126.228ZM212.605 126V111.617H214.03V126H212.605ZM216.946 126V111.617H218.371V126H216.946ZM229.286 126.228C228.323 126.228 227.449 126 226.664 125.544C225.878 125.075 225.251 124.442 224.783 123.644C224.327 122.833 224.099 121.915 224.099 120.889C224.099 119.876 224.327 118.97 224.783 118.172C225.239 117.374 225.853 116.747 226.626 116.291C227.411 115.822 228.298 115.588 229.286 115.588C230.274 115.588 231.154 115.816 231.927 116.272C232.712 116.728 233.326 117.355 233.77 118.153C234.226 118.951 234.454 119.863 234.454 120.889C234.454 121.928 234.219 122.852 233.751 123.663C233.282 124.461 232.655 125.088 231.87 125.544C231.097 126 230.236 126.228 229.286 126.228ZM229.286 124.803C229.97 124.803 230.584 124.632 231.129 124.29C231.686 123.948 232.123 123.479 232.44 122.884C232.769 122.289 232.934 121.624 232.934 120.889C232.934 120.154 232.769 119.496 232.44 118.913C232.123 118.33 231.686 117.868 231.129 117.526C230.584 117.184 229.97 117.013 229.286 117.013C228.602 117.013 227.981 117.184 227.424 117.526C226.879 117.868 226.442 118.33 226.113 118.913C225.783 119.496 225.619 120.154 225.619 120.889C225.619 121.624 225.783 122.289 226.113 122.884C226.442 123.479 226.879 123.948 227.424 124.29C227.981 124.632 228.602 124.803 229.286 124.803ZM240.577 126.228C239.868 126.228 239.222 126.063 238.639 125.734C238.056 125.392 237.594 124.923 237.252 124.328C236.923 123.72 236.758 123.023 236.758 122.238V115.816H238.183V122.067C238.183 122.612 238.291 123.093 238.506 123.511C238.734 123.916 239.044 124.233 239.437 124.461C239.842 124.689 240.305 124.803 240.824 124.803C241.343 124.803 241.806 124.689 242.211 124.461C242.616 124.22 242.933 123.885 243.161 123.454C243.389 123.011 243.503 122.485 243.503 121.877V115.816H244.928V126H243.503V124.024L243.826 124.1C243.585 124.759 243.174 125.278 242.591 125.658C242.008 126.038 241.337 126.228 240.577 126.228ZM247.859 126V115.816H249.284V117.488L249.094 117.241C249.334 116.76 249.695 116.38 250.177 116.101C250.671 115.822 251.266 115.683 251.963 115.683H252.609V117.108H251.716C250.981 117.108 250.392 117.336 249.949 117.792C249.505 118.248 249.284 118.894 249.284 119.73V126H247.859ZM257.507 126V115.816H258.932V117.488L258.742 117.241C258.983 116.76 259.344 116.38 259.825 116.101C260.319 115.822 260.914 115.683 261.611 115.683H262.257V117.108H261.364C260.629 117.108 260.04 117.336 259.597 117.792C259.154 118.248 258.932 118.894 258.932 119.73V126H257.507ZM268.563 126.228C267.613 126.228 266.752 126 265.979 125.544C265.219 125.075 264.617 124.436 264.174 123.625C263.731 122.814 263.509 121.896 263.509 120.87C263.509 119.844 263.724 118.938 264.155 118.153C264.586 117.355 265.168 116.728 265.903 116.272C266.65 115.816 267.486 115.588 268.411 115.588C269.146 115.588 269.798 115.727 270.368 116.006C270.951 116.272 271.445 116.639 271.85 117.108C272.255 117.564 272.566 118.083 272.781 118.666C272.996 119.236 273.104 119.825 273.104 120.433C273.104 120.56 273.098 120.705 273.085 120.87C273.072 121.022 273.053 121.18 273.028 121.345H264.421V120.015H272.211L271.527 120.585C271.641 119.888 271.559 119.268 271.28 118.723C271.014 118.166 270.628 117.729 270.121 117.412C269.614 117.083 269.044 116.918 268.411 116.918C267.778 116.918 267.189 117.083 266.644 117.412C266.112 117.741 265.694 118.204 265.39 118.799C265.086 119.382 264.966 120.078 265.029 120.889C264.966 121.7 265.092 122.409 265.409 123.017C265.738 123.612 266.182 124.075 266.739 124.404C267.309 124.733 267.917 124.898 268.563 124.898C269.31 124.898 269.937 124.721 270.444 124.366C270.951 124.011 271.362 123.568 271.679 123.036L272.895 123.682C272.692 124.138 272.382 124.562 271.964 124.955C271.546 125.335 271.046 125.645 270.463 125.886C269.893 126.114 269.26 126.228 268.563 126.228ZM278.148 126L274.177 115.816H275.773L279.117 124.746H278.604L281.967 115.816H283.582L279.573 126H278.148ZM285.246 126V115.816H286.671V126H285.246ZM285.246 113.935V111.845H286.671V113.935H285.246ZM294.224 126.228C293.274 126.228 292.413 126 291.64 125.544C290.88 125.075 290.278 124.436 289.835 123.625C289.392 122.814 289.17 121.896 289.17 120.87C289.17 119.844 289.385 118.938 289.816 118.153C290.247 117.355 290.829 116.728 291.564 116.272C292.311 115.816 293.147 115.588 294.072 115.588C294.807 115.588 295.459 115.727 296.029 116.006C296.612 116.272 297.106 116.639 297.511 117.108C297.916 117.564 298.227 118.083 298.442 118.666C298.657 119.236 298.765 119.825 298.765 120.433C298.765 120.56 298.759 120.705 298.746 120.87C298.733 121.022 298.714 121.18 298.689 121.345H290.082V120.015H297.872L297.188 120.585C297.302 119.888 297.22 119.268 296.941 118.723C296.675 118.166 296.289 117.729 295.782 117.412C295.275 117.083 294.705 116.918 294.072 116.918C293.439 116.918 292.85 117.083 292.305 117.412C291.773 117.741 291.355 118.204 291.051 118.799C290.747 119.382 290.627 120.078 290.69 120.889C290.627 121.7 290.753 122.409 291.07 123.017C291.399 123.612 291.843 124.075 292.4 124.404C292.97 124.733 293.578 124.898 294.224 124.898C294.971 124.898 295.598 124.721 296.105 124.366C296.612 124.011 297.023 123.568 297.34 123.036L298.556 123.682C298.353 124.138 298.043 124.562 297.625 124.955C297.207 125.335 296.707 125.645 296.124 125.886C295.554 126.114 294.921 126.228 294.224 126.228ZM303.519 126L300.023 115.816H301.638L304.526 124.727H303.956L306.673 115.816H308.098L310.815 124.727H310.245L313.152 115.816H314.748L311.252 126H309.827L307.186 117.279H307.585L304.944 126H303.519ZM319.952 126.228C318.977 126.228 318.122 125.981 317.387 125.487C316.652 124.993 316.12 124.322 315.791 123.473L316.988 122.903C317.279 123.524 317.685 124.018 318.204 124.385C318.736 124.752 319.319 124.936 319.952 124.936C320.56 124.936 321.073 124.79 321.491 124.499C321.909 124.195 322.118 123.802 322.118 123.321C322.118 122.966 322.017 122.688 321.814 122.485C321.611 122.27 321.377 122.105 321.111 121.991C320.845 121.877 320.611 121.795 320.408 121.744L318.945 121.326C318.008 121.06 317.33 120.686 316.912 120.205C316.494 119.724 316.285 119.166 316.285 118.533C316.285 117.938 316.437 117.418 316.741 116.975C317.045 116.532 317.457 116.19 317.976 115.949C318.495 115.708 319.072 115.588 319.705 115.588C320.566 115.588 321.345 115.816 322.042 116.272C322.751 116.715 323.252 117.336 323.543 118.134L322.327 118.704C322.074 118.134 321.706 117.691 321.225 117.374C320.756 117.045 320.231 116.88 319.648 116.88C319.078 116.88 318.622 117.026 318.28 117.317C317.938 117.608 317.767 117.976 317.767 118.419C317.767 118.761 317.856 119.033 318.033 119.236C318.21 119.439 318.413 119.591 318.641 119.692C318.882 119.793 319.091 119.869 319.268 119.92L320.959 120.414C321.782 120.655 322.422 121.028 322.878 121.535C323.347 122.042 323.581 122.637 323.581 123.321C323.581 123.878 323.423 124.379 323.106 124.822C322.802 125.265 322.378 125.614 321.833 125.867C321.288 126.108 320.661 126.228 319.952 126.228Z" fill="#868686"/>
<defs>
<clipPath id="clip0_112_256">
<rect width="222" height="42" fill="white" transform="translate(161 55)"/>
</clipPath>
</defs>
</svg>
