<svg width="200" height="100" viewBox="0 0 200 100" fill="none" xmlns="http://www.w3.org/2000/svg">
<g clip-path="url(#clip0_2006_2827)">
<path d="M31.4319 84.8V84.36H17.5719V71.16H30.4199V70.72H17.5719V54.44H32.3999V54H13.9199V84.8H31.4319ZM53.273 82.952C50.6037 83.9787 48.081 84.492 45.705 84.492C43.3584 84.492 41.525 83.9933 40.205 82.996C38.885 81.9987 38.225 80.62 38.225 78.86C38.225 76.7187 39.3397 75.0613 41.569 73.888C42.5664 73.3893 43.6517 72.92 44.825 72.48C46.0277 72.0693 47.2304 71.6 48.433 71.072C49.6357 70.544 50.7357 69.9427 51.733 69.268C52.7304 68.5933 53.537 67.6547 54.153 66.452C54.769 65.2787 55.077 63.768 55.077 61.92C55.077 60.1013 54.5637 58.5467 53.537 57.256C52.5104 55.9653 51.2637 55.0853 49.797 54.616C48.3597 54.176 46.673 53.956 44.737 53.956C41.129 53.956 38.049 54.8507 35.497 56.64L35.717 56.992C36.685 56.2293 37.9317 55.5987 39.457 55.1C41.0117 54.6307 42.5957 54.396 44.209 54.396C46.585 54.396 48.609 54.9387 50.281 56.024C51.9824 57.1387 52.833 58.7667 52.833 60.908C52.833 63.2547 51.7184 65.088 49.489 66.408C48.4917 66.9947 47.3917 67.5373 46.189 68.036C45.0157 68.5347 43.8277 69.048 42.625 69.576C41.4224 70.1333 40.3224 70.7493 39.325 71.424C37.0957 72.8907 35.981 74.9733 35.981 77.672C35.981 79.8133 36.6997 81.544 38.137 82.864C39.5744 84.2133 41.7304 84.888 44.605 84.888C47.509 84.888 50.457 84.3893 53.449 83.392L53.273 82.952ZM68.7559 54H65.1039V84.36H57.4919V84.8H76.4119V84.36H68.7559V54ZM83.5942 54H79.9422V84.8H83.5942V70.632H97.8942V84.8H101.546V54H97.8942V70.192H83.5942V54ZM124.33 84.8V84.36H110.47V71.16H123.318V70.72H110.47V54.44H125.298V54H106.818V84.8H124.33ZM139.439 54H135.787V84.36H128.175V84.8H147.095V84.36H139.439V54ZM151.506 84.36V84.8H159.338V84.36H157.182V54.44H159.338V54H151.506V54.44H153.53V84.36H151.506ZM179.56 53.824C174.075 53.824 170.012 55.3787 167.372 58.488C166.433 59.6027 165.671 61.084 165.084 62.932C164.497 64.78 164.204 67.024 164.204 69.664C164.204 72.304 164.629 74.6653 165.48 76.748C166.36 78.86 167.548 80.488 169.044 81.632C171.948 83.7733 175.453 84.844 179.56 84.844C180.733 84.844 181.877 84.7413 182.992 84.536C184.107 84.36 184.943 84.1693 185.5 83.964L186.292 83.656L186.16 83.216C184.165 84.008 181.965 84.404 179.56 84.404C176.451 84.404 173.855 83.392 171.772 81.368C170.188 79.872 169.073 77.672 168.428 74.768C168.047 73.1253 167.856 71.116 167.856 68.74C167.856 66.364 168.193 64.164 168.868 62.14C169.543 60.1453 170.305 58.664 171.156 57.696C172.036 56.728 173.092 55.9507 174.324 55.364C175.556 54.8067 176.539 54.484 177.272 54.396C178.005 54.308 178.885 54.264 179.912 54.264C180.968 54.264 182.156 54.3667 183.476 54.572C184.796 54.7773 185.793 54.968 186.468 55.144L187.48 55.452L187.612 55.012C185.383 54.22 182.699 53.824 179.56 53.824Z" fill="url(#paint0_linear_2006_2827)"/>
<path d="M31.4319 23.2V23.64H17.5719V36.84H30.4199V37.28H17.5719V53.56H32.3999V54H13.9199V23.2H31.4319ZM53.273 25.048C50.6037 24.0213 48.081 23.508 45.705 23.508C43.3584 23.508 41.525 24.0067 40.205 25.004C38.885 26.0013 38.225 27.38 38.225 29.14C38.225 31.2813 39.3397 32.9387 41.569 34.112C42.5664 34.6107 43.6517 35.08 44.825 35.52C46.0277 35.9307 47.2304 36.4 48.433 36.928C49.6357 37.456 50.7357 38.0573 51.733 38.732C52.7304 39.4067 53.537 40.3453 54.153 41.548C54.769 42.7213 55.077 44.232 55.077 46.08C55.077 47.8987 54.5637 49.4533 53.537 50.744C52.5104 52.0347 51.2637 52.9147 49.797 53.384C48.3597 53.824 46.673 54.044 44.737 54.044C41.129 54.044 38.049 53.1493 35.497 51.36L35.717 51.008C36.685 51.7707 37.9317 52.4013 39.457 52.9C41.0117 53.3693 42.5957 53.604 44.209 53.604C46.585 53.604 48.609 53.0613 50.281 51.976C51.9824 50.8613 52.833 49.2333 52.833 47.092C52.833 44.7453 51.7184 42.912 49.489 41.592C48.4917 41.0053 47.3917 40.4627 46.189 39.964C45.0157 39.4653 43.8277 38.952 42.625 38.424C41.4224 37.8667 40.3224 37.2507 39.325 36.576C37.0957 35.1093 35.981 33.0267 35.981 30.328C35.981 28.1867 36.6997 26.456 38.137 25.136C39.5744 23.7867 41.7304 23.112 44.605 23.112C47.509 23.112 50.457 23.6107 53.449 24.608L53.273 25.048ZM68.7559 54H65.1039V23.64H57.4919V23.2H76.4119V23.64H68.7559V54ZM83.5942 54H79.9422V23.2H83.5942V37.368H97.8942V23.2H101.546V54H97.8942V37.808H83.5942V54ZM124.33 23.2V23.64H110.47V36.84H123.318V37.28H110.47V53.56H125.298V54H106.818V23.2H124.33ZM139.439 54H135.787V23.64H128.175V23.2H147.095V23.64H139.439V54ZM151.506 23.64V23.2H159.338V23.64H157.182V53.56H159.338V54H151.506V53.56H153.53V23.64H151.506ZM179.56 54.176C174.075 54.176 170.012 52.6213 167.372 49.512C166.433 48.3973 165.671 46.916 165.084 45.068C164.497 43.22 164.204 40.976 164.204 38.336C164.204 35.696 164.629 33.3347 165.48 31.252C166.36 29.14 167.548 27.512 169.044 26.368C171.948 24.2267 175.453 23.156 179.56 23.156C180.733 23.156 181.877 23.2587 182.992 23.464C184.107 23.64 184.943 23.8307 185.5 24.036L186.292 24.344L186.16 24.784C184.165 23.992 181.965 23.596 179.56 23.596C176.451 23.596 173.855 24.608 171.772 26.632C170.188 28.128 169.073 30.328 168.428 33.232C168.047 34.8747 167.856 36.884 167.856 39.26C167.856 41.636 168.193 43.836 168.868 45.86C169.543 47.8547 170.305 49.336 171.156 50.304C172.036 51.272 173.092 52.0493 174.324 52.636C175.556 53.1933 176.539 53.516 177.272 53.604C178.005 53.692 178.885 53.736 179.912 53.736C180.968 53.736 182.156 53.6333 183.476 53.428C184.796 53.2227 185.793 53.032 186.468 52.856L187.48 52.548L187.612 52.988C185.383 53.78 182.699 54.176 179.56 54.176Z" fill="url(#paint1_linear_2006_2827)"/>
<path d="M46.9941 83.2656H45.3925L45.3847 82.8594H46.7636C47.0448 82.8594 47.2844 82.819 47.4823 82.7383C47.6803 82.6576 47.83 82.5378 47.9316 82.3789C48.0357 82.2174 48.0878 82.0195 48.0878 81.7852C48.0878 81.5456 48.037 81.3477 47.9355 81.1914C47.8339 81.0326 47.6816 80.9154 47.4784 80.8398C47.2753 80.7643 47.0201 80.7266 46.7128 80.7266H45.5175V86H45.037V80.3125H46.7128C47.0019 80.3125 47.261 80.3411 47.4902 80.3984C47.7193 80.4557 47.9146 80.5456 48.0761 80.668C48.2376 80.7904 48.3599 80.9453 48.4433 81.1328C48.5292 81.3177 48.5722 81.5391 48.5722 81.7969C48.5722 82.0312 48.5201 82.2435 48.4159 82.4336C48.3118 82.6211 48.1646 82.7747 47.9745 82.8945C47.787 83.0117 47.5618 83.0846 47.2988 83.1133L46.9941 83.2656ZM46.9589 86H45.2402L45.4863 85.5898H46.9589C47.2402 85.5898 47.4797 85.543 47.6777 85.4492C47.8782 85.3529 48.0318 85.2161 48.1386 85.0391C48.2454 84.862 48.2988 84.651 48.2988 84.4062C48.2988 84.1901 48.2519 83.9961 48.1581 83.8242C48.0644 83.6523 47.9211 83.5169 47.7284 83.418C47.5357 83.3164 47.2909 83.2656 46.9941 83.2656H45.998L46.0058 82.8594H47.4159L47.5019 83.0039C47.7571 83.0299 47.9797 83.1094 48.1698 83.2422C48.3626 83.3724 48.511 83.5378 48.6152 83.7383C48.7219 83.9388 48.7753 84.1589 48.7753 84.3984C48.7753 84.7422 48.6985 85.0339 48.5448 85.2734C48.3938 85.5104 48.1816 85.6914 47.9081 85.8164C47.6373 85.9388 47.3209 86 46.9589 86ZM51.9059 80.3125L53.6286 83.4102L55.3669 80.3125H55.9216L53.8708 83.8555V86H53.3903V83.8555L51.3356 80.3125H51.9059ZM65.0539 80.6523L63.0852 86H62.5852L64.7336 80.3125H65.0813L65.0539 80.6523ZM66.843 86L64.8703 80.6523L64.843 80.3125H65.1906L67.343 86H66.843ZM66.4914 83.9922V84.4062H63.4719V83.9922H66.4914ZM73.7158 85.5898V86H70.7666V85.5898H73.7158ZM70.9072 80.3125V86H70.4267V80.3125H70.9072ZM80.4206 85.5898V86H77.2214V85.5898H80.4206ZM77.3659 80.3125V86H76.8855V80.3125H77.3659ZM80.0222 82.8633V83.2734H77.2214V82.8633H80.0222ZM80.4011 80.3125V80.7266H77.2214V80.3125H80.4011ZM83.8052 80.3125L85.4067 82.7148L87.0122 80.3125H87.5825L85.6997 83.1133L87.6411 86H87.0669L85.4067 83.5195L83.7466 86H83.1763L85.1177 83.1133L83.2348 80.3125H83.8052ZM92.6858 80.6523L90.717 86H90.217L92.3655 80.3125H92.7131L92.6858 80.6523ZM94.4748 86L92.5022 80.6523L92.4748 80.3125H92.8225L94.9748 86H94.4748ZM94.1233 83.9922V84.4062H91.1038V83.9922H94.1233ZM102.293 80.3125V86H101.809L98.5391 81.1406V86H98.0586V80.3125H98.5391L101.816 85.1719V80.3125H102.293ZM107.541 86H106.252L106.26 85.5898H107.541C107.95 85.5898 108.301 85.4987 108.595 85.3164C108.892 85.1315 109.122 84.8763 109.283 84.5508C109.444 84.2253 109.525 83.8477 109.525 83.418V82.8867C109.525 82.5586 109.478 82.2617 109.385 81.9961C109.293 81.7305 109.162 81.5039 108.99 81.3164C108.818 81.1263 108.612 80.9805 108.373 80.8789C108.136 80.7773 107.87 80.7266 107.576 80.7266H106.228V80.3125H107.576C107.93 80.3125 108.254 80.3737 108.549 80.4961C108.845 80.6159 109.102 80.7904 109.318 81.0195C109.537 81.2461 109.705 81.5182 109.822 81.8359C109.942 82.1536 110.002 82.5078 110.002 82.8984V83.418C110.002 83.8086 109.942 84.1628 109.822 84.4805C109.705 84.7982 109.537 85.0703 109.318 85.2969C109.099 85.5234 108.84 85.6979 108.541 85.8203C108.241 85.9401 107.908 86 107.541 86ZM106.467 80.3125V86H105.986V80.3125H106.467ZM113.457 80.3125H115.304C115.697 80.3125 116.039 80.3763 116.328 80.5039C116.617 80.6315 116.839 80.8203 116.996 81.0703C117.154 81.3177 117.234 81.6224 117.234 81.9844C117.234 82.2526 117.177 82.4961 117.062 82.7148C116.95 82.9336 116.795 83.1172 116.597 83.2656C116.399 83.4115 116.17 83.5117 115.91 83.5664L115.742 83.6289H113.769L113.761 83.2188H115.414C115.71 83.2188 115.958 83.1615 116.156 83.0469C116.354 82.9323 116.502 82.7812 116.601 82.5938C116.703 82.4036 116.753 82.2005 116.753 81.9844C116.753 81.7266 116.697 81.5039 116.585 81.3164C116.476 81.1263 116.313 80.9805 116.097 80.8789C115.881 80.7773 115.617 80.7266 115.304 80.7266H113.937V86H113.457V80.3125ZM116.968 86L115.496 83.457L116.011 83.4531L117.48 85.9492V86H116.968ZM122.661 80.6523L120.693 86H120.193L122.341 80.3125H122.689L122.661 80.6523ZM124.45 86L122.478 80.6523L122.45 80.3125H122.798L124.95 86H124.45ZM124.099 83.9922V84.4062H121.079V83.9922H124.099ZM132.813 80.3125V86H132.333V80.3125H132.813ZM138.378 85.293L140.17 80.3125H140.694L138.577 86H138.19L138.378 85.293ZM136.526 80.3125L138.311 85.293L138.506 86H138.116L136.003 80.3125H136.526ZM145.348 80.6523L143.379 86H142.879L145.028 80.3125H145.375L145.348 80.6523ZM147.137 86L145.164 80.6523L145.137 80.3125H145.485L147.637 86H147.137ZM146.785 83.9922V84.4062H143.766V83.9922H146.785ZM154.955 80.3125V86H154.471L151.201 81.1406V86H150.721V80.3125H151.201L154.479 85.1719V80.3125H154.955Z" fill="black"/>
<path d="M70.0071 74.217C67.4378 74.217 65.2238 73.848 63.3651 73.11C61.4791 72.3993 60.0305 71.4017 59.0191 70.117C58.0078 68.8323 57.5021 67.3427 57.5021 65.648C57.5021 64.008 58.0078 62.6687 59.0191 61.63C60.0305 60.5913 61.3425 60.072 62.9551 60.072L62.9961 60.318C61.4655 60.318 60.2081 60.81 59.2241 61.794C58.2401 62.778 57.7481 64.0627 57.7481 65.648C57.7481 67.206 58.2128 68.5863 59.1421 69.789C60.0441 70.9917 61.3151 71.9347 62.9551 72.618C64.5678 73.3013 66.4401 73.643 68.5721 73.643C71.9068 73.643 75.2278 72.987 78.5351 71.675C81.8425 70.363 85.0951 68.559 88.2931 66.263C91.4638 63.967 94.5525 61.3157 97.5591 58.309C100.566 55.3297 103.436 52.1453 106.169 48.756C108.902 45.3667 111.472 41.95 113.877 38.506C115.49 36.1553 116.979 34.0643 118.346 32.233C119.713 30.3743 121.038 28.6523 122.323 27.067C123.854 25.181 125.48 23.3633 127.202 21.614C128.924 19.8373 130.632 18.1973 132.327 16.694C134.049 15.1633 135.689 13.824 137.247 12.676C138.832 11.528 140.254 10.6397 141.511 10.011C142.796 9.38233 143.834 9.068 144.627 9.068C145.392 9.068 145.775 9.478 145.775 10.298C145.775 10.9813 145.461 11.815 144.832 12.799C144.231 13.7557 143.356 14.767 142.208 15.833C141.306 16.653 140.199 17.6097 138.887 18.703C137.575 19.7963 136.14 20.9443 134.582 22.147C133.024 23.3497 131.439 24.5387 129.826 25.714C128.241 26.8893 126.724 27.9827 125.275 28.994C123.826 30.0053 122.542 30.8663 121.421 31.577C120.328 32.2603 119.494 32.725 118.92 32.971L118.838 32.725C119.822 32.2057 121.025 31.4813 122.446 30.552C123.895 29.6227 125.439 28.543 127.079 27.313C128.746 26.083 130.414 24.7847 132.081 23.418C133.776 22.024 135.402 20.6573 136.96 19.318C138.518 17.9787 139.912 16.7077 141.142 15.505C142.399 14.3023 143.397 13.2637 144.135 12.389C144.381 12.0883 144.613 11.6647 144.832 11.118C145.078 10.5713 145.201 10.175 145.201 9.929C145.201 9.519 144.969 9.314 144.504 9.314C143.766 9.314 142.755 9.683 141.47 10.421C140.185 11.1317 138.737 12.1157 137.124 13.373C135.539 14.603 133.871 16.038 132.122 17.678C130.4 19.2907 128.705 21.0127 127.038 22.844C125.371 24.648 123.84 26.4793 122.446 28.338C119.74 31.8913 117.676 34.611 116.255 36.497C114.861 38.3557 113.945 39.6403 113.508 40.351C110.337 45.1617 107.098 49.617 103.791 53.717C100.456 57.817 97.0125 61.3977 93.4591 64.459C89.8785 67.5203 86.1475 69.912 82.2661 71.634C78.3848 73.356 74.2985 74.217 70.0071 74.217ZM114.082 42.688C113.207 42.688 112.51 42.401 111.991 41.827L112.114 41.663C112.661 42.1277 113.303 42.36 114.041 42.36C115.025 42.36 116.077 42.0047 117.198 41.294C118.346 40.556 119.508 39.531 120.683 38.219L121.052 37.768H121.421L121.052 38.219C119.685 39.777 118.428 40.9113 117.28 41.622C116.159 42.3327 115.093 42.688 114.082 42.688ZM121.425 37.768H121.056L121.507 37.317C123.748 34.8297 125.566 32.7933 126.96 31.208C128.354 29.5953 129.269 28.4747 129.707 27.846H131.265C130.308 28.584 129.092 29.6773 127.616 31.126C126.167 32.5747 124.267 34.6247 121.917 37.276L121.425 37.768ZM122.368 44.123C122.887 44.123 123.598 43.8497 124.5 43.303C125.429 42.729 126.413 42.0047 127.452 41.13C128.518 40.2553 129.515 39.2987 130.445 38.26L130.855 37.768H131.224L130.896 38.137C129.884 39.3123 128.818 40.3647 127.698 41.294C126.604 42.2233 125.579 42.9613 124.623 43.508C123.693 44.0547 122.928 44.328 122.327 44.328C122.026 44.328 121.712 44.2187 121.384 44C121.056 43.8087 120.892 43.4807 120.892 43.016C120.892 42.3873 121.138 41.7177 121.63 41.007C122.122 40.2963 122.737 39.572 123.475 38.834C124.213 38.096 124.951 37.3853 125.689 36.702C126.427 36.0187 127.042 35.39 127.534 34.816C128.026 34.242 128.272 33.75 128.272 33.34C128.272 32.9027 127.998 32.684 127.452 32.684C127.206 32.684 126.919 32.725 126.591 32.807C126.29 32.889 125.948 32.9983 125.566 33.135L125.853 32.766C126.153 32.6293 126.454 32.52 126.755 32.438C127.083 32.3287 127.411 32.274 127.739 32.274C128.367 32.274 128.859 32.397 129.215 32.643C129.597 32.889 129.789 33.299 129.789 33.873C129.789 34.5563 129.515 35.2397 128.969 35.923C128.422 36.6063 127.739 37.276 126.919 37.932C126.099 38.588 125.279 39.2303 124.459 39.859C123.639 40.4877 122.955 41.1027 122.409 41.704C121.862 42.278 121.589 42.8383 121.589 43.385C121.589 43.877 121.848 44.123 122.368 44.123ZM130.004 44.246C129.212 44.246 128.815 43.6173 128.815 42.36C128.815 41.54 129.061 40.6653 129.553 39.736C130.045 38.8067 130.701 37.9047 131.521 37.03C132.369 36.1553 133.298 35.3627 134.309 34.652C135.348 33.9413 136.414 33.381 137.507 32.971C138.601 32.561 139.639 32.356 140.623 32.356C141.443 32.356 141.853 32.6703 141.853 33.299C141.853 33.873 141.471 34.6247 140.705 35.554C139.967 36.4833 139.011 37.5493 137.835 38.752C136.933 39.6813 135.977 40.5697 134.965 41.417C133.981 42.2643 133.052 42.9477 132.177 43.467C131.303 43.9863 130.578 44.246 130.004 44.246ZM130.045 44C130.51 44 131.139 43.7677 131.931 43.303C132.751 42.8383 133.653 42.196 134.637 41.376C135.621 40.556 136.633 39.613 137.671 38.547C138.819 37.3443 139.749 36.3193 140.459 35.472C141.17 34.5973 141.525 33.8867 141.525 33.34C141.525 32.93 141.252 32.725 140.705 32.725C140.213 32.725 139.598 32.9163 138.86 33.299C138.122 33.6817 137.33 34.201 136.482 34.857C135.635 35.513 134.788 36.2373 133.94 37.03C133.12 37.8227 132.355 38.629 131.644 39.449C130.961 40.2417 130.414 40.9933 130.004 41.704C129.594 42.3873 129.389 42.9613 129.389 43.426C129.389 43.8087 129.608 44 130.045 44ZM145.01 37.768L144.682 38.137C143.671 39.3123 142.632 40.3783 141.566 41.335C140.528 42.2643 139.571 43.0023 138.696 43.549C137.849 44.0683 137.166 44.328 136.646 44.328C136.373 44.328 136.127 44.2187 135.908 44C135.717 43.8087 135.621 43.549 135.621 43.221C135.621 42.401 136.072 41.294 136.974 39.9C137.876 38.4787 139.134 36.9343 140.746 35.267H140.951L143.165 32.848H145.994C145.557 33.094 145.106 33.4083 144.641 33.791C144.177 34.1463 143.726 34.529 143.288 34.939C141.484 36.7703 140.049 38.2327 138.983 39.326C137.945 40.392 137.207 41.2393 136.769 41.868C136.332 42.4693 136.113 42.975 136.113 43.385C136.113 43.877 136.318 44.123 136.728 44.123C137.166 44.123 137.767 43.877 138.532 43.385C139.325 42.8657 140.213 42.1687 141.197 41.294C142.209 40.392 143.22 39.3807 144.231 38.26L144.641 37.768H145.01ZM145.008 37.768H144.639L145.09 37.317C146.456 35.7863 147.768 34.57 149.026 33.668C150.283 32.7387 151.267 32.274 151.978 32.274C152.278 32.274 152.524 32.3697 152.716 32.561C152.907 32.7523 153.003 33.012 153.003 33.34C153.003 34.0233 152.716 34.8023 152.142 35.677C151.568 36.5243 150.584 37.6723 149.19 39.121H149.682L148.739 40.392L145.5 44H142.343C143.491 43.1527 144.666 42.196 145.869 41.13C147.099 40.0367 148.219 38.957 149.231 37.891C150.242 36.825 151.062 35.8683 151.691 35.021C152.319 34.1463 152.634 33.5177 152.634 33.135C152.634 32.725 152.415 32.52 151.978 32.52C151.568 32.52 150.994 32.7387 150.256 33.176C149.518 33.6133 148.725 34.1873 147.878 34.898C147.058 35.6087 146.251 36.415 145.459 37.317L145.008 37.768ZM159.071 44.328C158.715 44.328 158.401 44.1777 158.128 43.877C157.854 43.549 157.718 43.1663 157.718 42.729C157.718 42.073 157.977 41.3897 158.497 40.679C159.016 39.941 159.645 39.2167 160.383 38.506C161.148 37.768 161.9 37.071 162.638 36.415C163.376 35.759 164.004 35.1577 164.524 34.611C165.043 34.0643 165.303 33.5997 165.303 33.217C165.303 32.8617 165.07 32.684 164.606 32.684C164.168 32.684 163.567 32.9163 162.802 33.381C162.036 33.8457 161.189 34.4607 160.26 35.226C159.33 35.964 158.401 36.7977 157.472 37.727C156.542 38.629 155.668 39.5173 154.848 40.392H154.479C155.299 39.49 156.187 38.5743 157.144 37.645C158.128 36.7157 159.098 35.8547 160.055 35.062C161.011 34.2693 161.886 33.6407 162.679 33.176C163.499 32.684 164.168 32.438 164.688 32.438C165.016 32.438 165.33 32.561 165.631 32.807C165.959 33.0257 166.123 33.3947 166.123 33.914C166.123 34.5973 165.849 35.2943 165.303 36.005C164.783 36.6883 164.141 37.3853 163.376 38.096C162.61 38.7793 161.845 39.449 161.08 40.105C160.314 40.7337 159.672 41.335 159.153 41.909C158.633 42.483 158.374 42.9887 158.374 43.426C158.374 43.8907 158.62 44.123 159.112 44.123C159.604 44.123 160.301 43.8497 161.203 43.303C162.105 42.729 163.075 42.0047 164.114 41.13C165.152 40.2553 166.136 39.2987 167.066 38.26L167.476 37.768H167.845L167.517 38.137C166.533 39.3123 165.494 40.3647 164.401 41.294C163.307 42.2233 162.282 42.9613 161.326 43.508C160.396 44.0547 159.645 44.328 159.071 44.328ZM148.739 40.392H148.329L151.24 37.317C152.606 35.8137 153.864 34.6383 155.012 33.791C156.16 32.9163 157.103 32.479 157.841 32.479C158.114 32.479 158.346 32.5747 158.538 32.766C158.729 32.9573 158.825 33.2033 158.825 33.504C158.825 34.1873 158.565 34.9527 158.046 35.8C157.554 36.62 156.652 37.727 155.34 39.121H155.832L154.848 40.392L151.65 44H148.821C149.941 43.18 151.062 42.237 152.183 41.171C153.303 40.105 154.328 39.039 155.258 37.973C156.214 36.907 156.98 35.964 157.554 35.144C158.155 34.2967 158.456 33.6953 158.456 33.34C158.456 32.93 158.237 32.725 157.8 32.725C157.417 32.725 156.884 32.93 156.201 33.34C155.517 33.75 154.779 34.2967 153.987 34.98C153.194 35.6633 152.401 36.4423 151.609 37.317L148.739 40.392ZM167.83 44.123C168.65 44.123 169.593 43.8633 170.659 43.344C171.725 42.8247 172.832 42.1277 173.98 41.253C175.155 40.351 176.235 39.3533 177.219 38.26L177.629 37.768H178.039L177.67 38.137C176.659 39.3123 175.538 40.3783 174.308 41.335C173.105 42.2643 171.93 43.0023 170.782 43.549C169.661 44.0683 168.677 44.328 167.83 44.328C167.201 44.328 166.696 44.1093 166.313 43.672C165.93 43.2073 165.739 42.5787 165.739 41.786C165.739 40.9933 165.971 40.1733 166.436 39.326C166.901 38.4787 167.516 37.645 168.281 36.825C169.046 36.005 169.907 35.267 170.864 34.611C171.848 33.9277 172.846 33.3947 173.857 33.012C174.896 32.6293 175.88 32.438 176.809 32.438C177.219 32.438 177.547 32.52 177.793 32.684C178.039 32.848 178.162 33.0667 178.162 33.34C178.162 33.8593 177.875 34.406 177.301 34.98C176.727 35.5267 175.989 36.046 175.087 36.538C174.185 37.03 173.215 37.44 172.176 37.768C171.137 38.0687 170.153 38.219 169.224 38.219L169.552 37.891C170.427 37.8363 171.329 37.6723 172.258 37.399C173.215 37.0983 174.103 36.7157 174.923 36.251C175.743 35.7863 176.399 35.2943 176.891 34.775C177.41 34.2557 177.67 33.7773 177.67 33.34C177.67 32.9573 177.424 32.766 176.932 32.766C176.331 32.766 175.593 33.0257 174.718 33.545C173.843 34.037 172.941 34.693 172.012 35.513C171.083 36.3057 170.208 37.1803 169.388 38.137C168.595 39.0937 167.953 40.0093 167.461 40.884C166.942 41.7313 166.682 42.4693 166.682 43.098C166.682 43.7813 167.065 44.123 167.83 44.123Z" fill="url(#paint2_linear_2006_2827)"/>
</g>
<defs>
<linearGradient id="paint0_linear_2006_2827" x1="100" y1="95" x2="100" y2="43" gradientUnits="userSpaceOnUse">
<stop offset="0.410004" stop-opacity="0"/>
<stop offset="0.903071"/>
<stop offset="1" stop-opacity="0"/>
</linearGradient>
<linearGradient id="paint1_linear_2006_2827" x1="100" y1="22" x2="100" y2="56" gradientUnits="userSpaceOnUse">
<stop offset="0.9999"/>
<stop offset="1" stop-opacity="0"/>
<stop offset="1" stop-opacity="0"/>
</linearGradient>
<linearGradient id="paint2_linear_2006_2827" x1="146" y1="-13" x2="146" y2="87" gradientUnits="userSpaceOnUse">
<stop offset="0.960481" stop-color="#CAB256"/>
<stop offset="1" stop-color="#CFB53B" stop-opacity="0"/>
</linearGradient>
<clipPath id="clip0_2006_2827">
<rect width="200" height="100" fill="white"/>
</clipPath>
</defs>
</svg>
