<svg version="1.1" preserveAspectRatio="none" xmlns="http://www.w3.org/2000/svg" width="500" height="500" viewBox="0 0 500 500"><rect width="100%" height="100%" fill="#FFF0F0" fill-opacity="1"/><svg viewBox="-12.6474 43.808 375.2948 262.384" width="333" height="232.81396917836327" x="83.5px" y="133.593px" xmlns="http://www.w3.org/2000/svg" xmlns:xlink="http://www.w3.org/1999/xlink" preserveAspectRatio="none"><defs></defs><style>.aaPBVVfuKfillColor {fill:#E9E9E9;fill-opacity:0;}.aaPBVVfuKstrokeColor-str {stroke:#A0A0A0;stroke-opacity:0.2;}.companyName {fill:#282828;fill-opacity:1;}.icon1 {fill:#282828;fill-opacity:1;}.icon3-str {stroke:#FFF4F4;stroke-opacity:1;}</style><g opacity="1" transform="rotate(0 43.7982 43.808)">
<svg width="262.4036" height="262.384" x="43.7982" y="43.808" version="1.1" preserveAspectRatio="none" viewBox="0 0 262.4036 262.384">
  <defs><rect x="2.6238400000000004" y="2.6238400000000004" width="257.15592" height="257.13632" rx="0%" ry="0%" id="id-aPBVVfuK1692263276334"></rect></defs><use class="aaPBVVfuKfillColor aaPBVVfuKstrokeColor-str" style="stroke-width:5.247680000000001;" xlink:href="#id-aPBVVfuK1692263276334"></use>
</svg>
</g><g opacity="1" transform="rotate(0 83.7982 209)">
<svg width="182.4036" height="16" x="83.7982" y="209" version="1.1" preserveAspectRatio="none" viewBox="3.72 -29.2 431.03999999999996 37.8">
  <g transform="matrix(1 0 0 1 0 0)" class="icon1"><path id="id-6izo4zJp17" d="M13.56-20.40Q17.76-20.40 20.22-17.62Q22.68-14.84 22.68-10L22.68-10Q22.68-5.16 20.22-2.38Q17.76 0.40 13.56 0.40L13.56 0.40Q11.24 0.40 9.42-0.66Q7.60-1.72 6.72-3.48L6.72-3.48L6.52 0L3.72 0L3.72-29.20L6.92-29.20L6.92-16.88Q7.88-18.48 9.62-19.44Q11.36-20.40 13.56-20.40L13.56-20.40ZM13.20-2.40Q16.12-2.40 17.80-4.46Q19.48-6.52 19.48-10L19.48-10Q19.48-13.48 17.80-15.54Q16.12-17.60 13.20-17.60L13.20-17.60Q10.32-17.60 8.62-15.60Q6.92-13.60 6.92-10.24L6.92-10.24L6.92-9.76Q6.92-6.40 8.62-4.40Q10.32-2.40 13.20-2.40L13.20-2.40Z M51.32-20L41.92 3.36Q40.76 6.24 39.32 7.42Q37.88 8.60 35.60 8.60L35.60 8.60Q34.08 8.60 33.06 8.20Q32.04 7.80 31.20 6.92L31.20 6.92L32.32 4.20Q33.48 5.80 35.56 5.80L35.56 5.80Q36.72 5.80 37.62 5.10Q38.52 4.40 39.20 2.56L39.20 2.56L40.24-0.04L31.88-20L35.52-20L40.52-6.96L41.76-3.40L43.20-7.36L47.88-20L51.32-20Z M97 0L94.20-7.32L82.24-7.32L79.44 0L76.08 0L86.36-26.40L90.16-26.40L100.40 0L97 0ZM83.40-10.32L93.04-10.32L89.48-19.68L88.24-23.36L88.16-23.36L87-19.80L83.40-10.32Z M114.20-29.20L114.20-5.36Q114.20-3.84 114.66-3.26Q115.12-2.68 116.36-2.68L116.36-2.68Q117.20-2.68 117.82-2.80Q118.44-2.92 119.28-3.24L119.28-3.24L118.76-0.16Q117.44 0.40 115.80 0.40L115.80 0.40Q113.36 0.40 112.18-0.92Q111.00-2.24 111.00-4.96L111.00-4.96L111.00-29.20L114.20-29.20Z M146.56-11.04Q146.56-9.92 146.40-8.80L146.40-8.80L131.32-8.80Q131.60-5.76 133.34-4.08Q135.08-2.40 137.84-2.40L137.84-2.40Q140.04-2.40 141.50-3.16Q142.96-3.92 143.48-5.36L143.48-5.36L146.16-3.96Q144.96-1.84 142.96-0.72Q140.96 0.40 137.84 0.40L137.84 0.40Q133.32 0.40 130.74-2.36Q128.16-5.12 128.16-10L128.16-10Q128.16-14.88 130.62-17.64Q133.08-20.40 137.60-20.40L137.60-20.40Q140.40-20.40 142.44-19.16Q144.48-17.92 145.52-15.80Q146.56-13.68 146.56-11.04L146.56-11.04ZM137.60-17.60Q134.96-17.60 133.34-16.04Q131.72-14.48 131.36-11.64L131.36-11.64L143.48-11.64Q143.16-14.44 141.64-16.02Q140.12-17.60 137.60-17.60L137.60-17.60Z M174.16 0L170.24 0L164.72-7.72L159.04 0L155.32 0L163.00-10.08L155.80-20L159.80-20L165.08-12.60L170.28-20L174.04-20L166.80-10.20L174.16 0Z M201.16-2.32Q201.96-2.32 202.76-2.52L202.76-2.52L202.56 0Q201.44 0.40 200.16 0.40L200.16 0.40Q198.60 0.40 197.70-0.28Q196.80-0.96 196.56-2.56L196.56-2.56Q195.64-1.16 193.86-0.38Q192.08 0.40 190.12 0.40L190.12 0.40Q187.16 0.40 185.24-0.98Q183.32-2.36 183.32-4.96L183.32-4.96Q183.32-7.24 185.32-8.90Q187.32-10.56 191.12-11.20L191.12-11.20L196.44-12.08L196.44-13.20Q196.44-15.20 195.20-16.40Q193.96-17.60 191.76-17.60L191.76-17.60Q189.76-17.60 188.30-16.64Q186.84-15.68 186.04-13.80L186.04-13.80L183.68-15.52Q184.48-17.76 186.66-19.08Q188.84-20.40 191.76-20.40L191.76-20.40Q195.32-20.40 197.48-18.68Q199.64-16.96 199.64-13.60L199.64-13.60L199.64-3.76Q199.64-3.04 200.00-2.68Q200.36-2.32 201.16-2.32L201.16-2.32ZM190.28-2.40Q192.80-2.40 194.62-3.60Q196.44-4.80 196.44-6.72L196.44-6.72L196.44-9.48L191.96-8.64Q189.28-8.16 187.96-7.26Q186.64-6.36 186.64-4.96L186.64-4.96Q186.64-3.72 187.60-3.06Q188.56-2.40 190.28-2.40L190.28-2.40Z M223.12-20.40Q226.52-20.40 228.72-18.44Q230.92-16.48 230.92-12.80L230.92-12.80L230.92 0L227.72 0L227.72-11.68Q227.72-14.80 226.38-16.20Q225.04-17.60 222.80-17.60L222.80-17.60Q221.20-17.60 219.80-16.90Q218.40-16.20 217.50-14.62Q216.60-13.04 216.60-10.64L216.60-10.64L216.60 0L213.40 0L213.40-20L216.20-20L216.40-16.88Q217.40-18.68 219.16-19.54Q220.92-20.40 223.12-20.40L223.12-20.40Z M258.72-29.20L261.92-29.20L261.92 0L259.12 0L258.92-3.48Q258.04-1.72 256.22-0.66Q254.40 0.40 252.08 0.40L252.08 0.40Q247.88 0.40 245.42-2.38Q242.96-5.16 242.96-10L242.96-10Q242.96-14.84 245.42-17.62Q247.88-20.40 252.08-20.40L252.08-20.40Q254.28-20.40 256.02-19.44Q257.76-18.48 258.72-16.88L258.72-16.88L258.72-29.20ZM252.44-2.40Q255.32-2.40 257.02-4.40Q258.72-6.40 258.72-9.76L258.72-9.76L258.72-10.24Q258.72-13.60 257.02-15.60Q255.32-17.60 252.44-17.60L252.44-17.60Q249.52-17.60 247.84-15.54Q246.16-13.48 246.16-10L246.16-10Q246.16-6.52 247.84-4.46Q249.52-2.40 252.44-2.40L252.44-2.40Z M284.80-20.40Q286.24-20.40 287-20L287-20L286.36-16.88Q285.40-17.40 283.84-17.40L283.84-17.40Q282.56-17.40 281.34-16.66Q280.12-15.92 279.34-14.42Q278.56-12.92 278.56-10.80L278.56-10.80L278.56 0L275.36 0L275.36-20L277.96-20L278.40-16.72Q280.08-20.40 284.80-20.40L284.80-20.40Z M313.52-2.32Q314.32-2.32 315.12-2.52L315.12-2.52L314.92 0Q313.80 0.40 312.52 0.40L312.52 0.40Q310.96 0.40 310.06-0.28Q309.16-0.96 308.92-2.56L308.92-2.56Q308-1.16 306.22-0.38Q304.44 0.40 302.48 0.40L302.48 0.40Q299.52 0.40 297.60-0.98Q295.68-2.36 295.68-4.96L295.68-4.96Q295.68-7.24 297.68-8.90Q299.68-10.56 303.48-11.20L303.48-11.20L308.80-12.08L308.80-13.20Q308.80-15.20 307.56-16.40Q306.32-17.60 304.12-17.60L304.12-17.60Q302.12-17.60 300.66-16.64Q299.20-15.68 298.40-13.80L298.40-13.80L296.04-15.52Q296.84-17.76 299.02-19.08Q301.20-20.40 304.12-20.40L304.12-20.40Q307.68-20.40 309.84-18.68Q312-16.96 312-13.60L312-13.60L312-3.76Q312-3.04 312.36-2.68Q312.72-2.32 313.52-2.32L313.52-2.32ZM302.64-2.40Q305.16-2.40 306.98-3.60Q308.80-4.80 308.80-6.72L308.80-6.72L308.80-9.48L304.32-8.64Q301.64-8.16 300.32-7.26Q299-6.36 299-4.96L299-4.96Q299-3.72 299.96-3.06Q300.92-2.40 302.64-2.40L302.64-2.40Z M348.28-26.40L348.28 0L345.08 0L345.08-26.40L348.28-26.40Z M375.56-20L378.92-20L370.60 0L367.40 0L359.08-20L362.72-20L369.04-3.24L375.56-20Z M405.00-2.32Q405.80-2.32 406.60-2.52L406.60-2.52L406.40 0Q405.28 0.40 404.00 0.40L404.00 0.40Q402.44 0.40 401.54-0.28Q400.64-0.96 400.40-2.56L400.40-2.56Q399.48-1.16 397.70-0.38Q395.92 0.40 393.96 0.40L393.96 0.40Q391.00 0.40 389.08-0.98Q387.16-2.36 387.16-4.96L387.16-4.96Q387.16-7.24 389.16-8.90Q391.16-10.56 394.96-11.20L394.96-11.20L400.28-12.08L400.28-13.20Q400.28-15.20 399.04-16.40Q397.80-17.60 395.60-17.60L395.60-17.60Q393.60-17.60 392.14-16.64Q390.68-15.68 389.88-13.80L389.88-13.80L387.52-15.52Q388.32-17.76 390.50-19.08Q392.68-20.40 395.60-20.40L395.60-20.40Q399.16-20.40 401.32-18.68Q403.48-16.96 403.48-13.60L403.48-13.60L403.48-3.76Q403.48-3.04 403.84-2.68Q404.20-2.32 405.00-2.32L405.00-2.32ZM394.12-2.40Q396.64-2.40 398.46-3.60Q400.28-4.80 400.28-6.72L400.28-6.72L400.28-9.48L395.80-8.64Q393.12-8.16 391.80-7.26Q390.48-6.36 390.48-4.96L390.48-4.96Q390.48-3.72 391.44-3.06Q392.40-2.40 394.12-2.40L394.12-2.40Z M426.96-20.40Q430.36-20.40 432.56-18.44Q434.76-16.48 434.76-12.80L434.76-12.80L434.76 0L431.56 0L431.56-11.68Q431.56-14.80 430.22-16.20Q428.88-17.60 426.64-17.60L426.64-17.60Q425.04-17.60 423.64-16.90Q422.24-16.20 421.34-14.62Q420.44-13.04 420.44-10.64L420.44-10.64L420.44 0L417.24 0L417.24-20L420.04-20L420.24-16.88Q421.24-18.68 423.00-19.54Q424.76-20.40 426.96-20.40L426.96-20.40Z"/></g>
</svg>
</g><g opacity="1" transform="rotate(0 -12.6474 161)">
<svg width="375.2948" height="28" x="-12.6474" y="161" version="1.1" preserveAspectRatio="none" viewBox="4.8 -28.48 388.15999999999997 28.96">
  <g transform="matrix(1 0 0 1 0 0)" class="companyName"><path id="id-D6z1nYkh14" d="M22.88-28L4.80-28L4.80 0L22.88 0L22.88-2.20L8.44-2.20L8.44-13.92L20.84-13.92L20.84-15.76L8.44-15.76L8.44-25.80L22.88-25.80L22.88-28Z M30.28-7.08L27.56-7.08Q27.64-5.36 28.46-3.96Q29.28-2.56 30.70-1.58Q32.12-0.60 34.04-0.06Q35.96 0.48 38.24 0.48L38.24 0.48Q40.56 0.48 42.42-0.08Q44.28-0.64 45.60-1.68Q46.92-2.72 47.64-4.20Q48.36-5.68 48.36-7.48L48.36-7.48Q48.36-9.96 47.12-11.54Q45.88-13.12 44.02-14.18Q42.16-15.24 39.98-15.96Q37.80-16.68 35.94-17.48Q34.08-18.28 32.84-19.32Q31.60-20.36 31.60-22.08L31.60-22.08Q31.60-23.04 32.02-23.88Q32.44-24.72 33.26-25.34Q34.08-25.96 35.28-26.34Q36.48-26.72 38.04-26.72L38.04-26.72Q40.64-26.72 42.46-25.62Q44.28-24.52 44.60-22.16L44.60-22.16L47.32-22.16Q47.08-23.64 46.24-24.82Q45.40-26 44.12-26.82Q42.84-27.64 41.22-28.06Q39.60-28.48 37.84-28.48L37.84-28.48Q36-28.48 34.34-28Q32.68-27.52 31.42-26.60Q30.16-25.68 29.42-24.28Q28.68-22.88 28.68-21.08L28.68-21.08Q28.68-18.72 29.88-17.28Q31.08-15.84 32.90-14.88Q34.72-13.92 36.84-13.24Q38.96-12.56 40.78-11.70Q42.60-10.84 43.80-9.60Q45-8.36 45-6.28L45-6.28Q45-3.68 43.10-2.48Q41.20-1.28 38.04-1.28L38.04-1.28Q35.52-1.28 34-1.94Q32.48-2.60 31.68-3.52Q30.88-4.44 30.60-5.42Q30.32-6.40 30.28-7.08L30.28-7.08Z M64.60 0L68.24 0L68.24-25.80L78.96-25.80L78.96-28L53.88-28L53.88-25.80L64.60-25.80L64.60 0Z M90.20 0L90.20-13.92L106.96-13.92L106.96 0L110.60 0L110.60-28L106.96-28L106.96-15.76L90.20-15.76L90.20-28L86.56-28L86.56 0L90.20 0Z M140.28-28L122.20-28L122.20 0L140.28 0L140.28-2.20L125.84-2.20L125.84-13.92L138.24-13.92L138.24-15.76L125.84-15.76L125.84-25.80L140.28-25.80L140.28-28Z M155 0L158.64 0L158.64-25.80L169.36-25.80L169.36-28L144.28-28L144.28-25.80L155-25.80L155 0Z M182.20-28L178.56-28L178.56 0L182.20 0L182.20-28Z M220.16-4.08L218.96-5.16Q214.88-1.32 209.28-1.32L209.28-1.32Q206.16-1.32 203.76-2.40Q201.36-3.48 199.76-5.28Q198.16-7.08 197.34-9.44Q196.52-11.80 196.52-14.36L196.52-14.36Q196.52-17.08 197.38-19.34Q198.24-21.60 199.80-23.24Q201.36-24.88 203.50-25.80Q205.64-26.72 208.16-26.72L208.16-26.72Q209.88-26.72 211.30-26.32Q212.72-25.92 213.82-25.28Q214.92-24.64 215.62-23.82Q216.32-23 216.60-22.16L216.60-22.16L219.56-22.16Q218.96-23.52 218.02-24.68Q217.08-25.84 215.68-26.68Q214.28-27.52 212.40-28Q210.52-28.48 208.12-28.48L208.12-28.48Q204.64-28.48 201.78-27.48Q198.92-26.48 196.88-24.62Q194.84-22.76 193.72-20.14Q192.60-17.52 192.60-14.28L192.60-14.28Q192.60-11.48 193.50-8.82Q194.40-6.16 196.28-4.10Q198.16-2.04 201.08-0.78Q204 0.48 208.04 0.48L208.04 0.48Q210.60 0.48 212.62 0Q214.64-0.48 216.14-1.18Q217.64-1.88 218.64-2.68Q219.64-3.48 220.16-4.08L220.16-4.08Z M261.84-28L243.76-28L243.76 0L247.40 0L247.40-13.92L259.80-13.92L259.80-15.76L247.40-15.76L247.40-25.80L261.84-25.80L261.84-28Z M278.92-28L269.84-28L269.84 0L273.48 0L273.48-12.36L275.24-12.36Q276.36-12.36 277.10-12.16Q277.84-11.96 278.44-11.48Q279.04-11 279.56-10.24Q280.08-9.48 280.80-8.36L280.80-8.36L283.96-3.68Q284.56-2.76 285.14-2Q285.72-1.24 286.40-0.70Q287.08-0.16 287.94 0.16Q288.80 0.48 290.00 0.48L290.00 0.48Q290.88 0.48 291.44 0.40Q292.00 0.32 292.56 0L292.56 0L292.56-1.48Q292.36-1.44 292.16-1.42Q291.96-1.40 291.76-1.40L291.76-1.40Q290.92-1.40 290.28-1.64Q289.64-1.88 289.08-2.34Q288.52-2.80 288.00-3.46Q287.48-4.12 286.92-4.96L286.92-4.96Q285.24-7.40 284.32-8.86Q283.40-10.32 282.86-11.12Q282.32-11.92 281.98-12.28Q281.64-12.64 281.16-12.88L281.16-12.88L280.76-13.08L280.76-13.24Q282.68-13.36 284.06-14.08Q285.44-14.80 286.32-15.88Q287.20-16.96 287.60-18.22Q288.00-19.48 288.00-20.68L288.00-20.68Q288.00-21.76 287.58-23.04Q287.16-24.32 286.14-25.42Q285.12-26.52 283.36-27.26Q281.60-28 278.92-28L278.92-28ZM273.48-14.16L273.48-26.24L277.52-26.24Q279.04-26.24 280.26-25.80Q281.48-25.36 282.36-24.58Q283.24-23.80 283.70-22.72Q284.16-21.64 284.16-20.36L284.16-20.36Q284.16-19.28 283.74-18.18Q283.32-17.08 282.48-16.18Q281.64-15.28 280.42-14.72Q279.20-14.16 277.60-14.16L277.60-14.16L273.48-14.16Z M302.32-8.24L316.12-8.24L319.96 0L323.84 0L310.80-28L308.80-28L296.96 0L298.80 0L302.32-8.24ZM309-23.52L315.28-10.04L303.08-10.04L308.84-23.52L309-23.52Z M347.40-3.96L334.56-28L331.84-28L331.84 0L333.60 0L333.60-22.84L333.76-22.84L346.12 0.48L346.84 0.48L359.48-22.68L359.64-22.68L359.64 0L363.28 0L363.28-28L360.52-28L347.56-3.96L347.40-3.96Z M392.96-28L374.88-28L374.88 0L392.96 0L392.96-2.20L378.52-2.20L378.52-13.92L390.92-13.92L390.92-15.76L378.52-15.76L378.52-25.80L392.96-25.80L392.96-28Z"/></g>
</svg>
</g></svg></svg>